PathFileType	4	(X/Y/Z)	D:\TRACE\spot_10-12-23\spot_arm_body_motion_1_9-platform.trc
DataRate	CameraRate	NumFrames	NumMarkers	Units	OrigDataRate	OrigDataStartFrame	OrigNumFrames
100.00	100.00	      31	5	mm	100.00	5251	      7000
Frame#	Time	Left_Front			Right_Front			Left_Aft			Right_Aft			Post			
		X1	Y1	Z1	X2	Y2	Z2	X3	Y3	Z3	X4	Y4	Z4	X5	Y5	Z5	

5251	52.500	-778.82819	0.95624	-654.03448	788.44458	-0.76999	-629.46045	-710.22620	19.17097	484.31522	696.51367	18.68775	586.48462	8.88767	723.96381	-975.96588	
5252	52.510	-778.01276	0.97177	-653.81250	789.51617	-0.62432	-629.34851	-709.32556	18.91868	484.41528	697.52728	18.42456	586.77844	9.82721	724.52106	-975.71509	
5253	52.520	-776.88684	1.34969	-653.91766	790.60156	-0.08928	-629.24438	-708.33319	18.63862	484.39835	698.43073	18.12080	586.93384	11.02595	725.16833	-975.40619	
5254	52.530	-775.88507	2.32119	-653.82172	791.44049	0.50013	-629.19446	-707.35846	18.16702	484.68921	699.51843	17.55653	586.90576	12.00312	725.77185	-975.00317	
5255	52.540	-774.88831	2.77115	-653.60956	792.39703	0.86790	-629.03339	-706.43689	17.95551	484.94208	700.20868	17.12060	586.53967	12.76078	726.39600	-974.54797	
5256	52.550	-774.01465	3.23424	-653.45898	793.42297	1.27962	-628.99591	-705.35583	17.81387	484.88370	701.33838	16.91886	587.14270	13.53092	727.12494	-974.00293	
5257	52.560	-773.17584	3.69257	-653.40826	794.41339	1.79829	-628.72107	-704.46686	17.46467	484.91425	702.39941	16.58736	587.30023	14.39438	727.84155	-973.22400	
5258	52.570	-772.30853	4.15271	-653.50891	795.30420	2.19614	-628.65192	-703.61682	17.00701	485.09207	703.18011	16.22678	587.36664	14.86574	728.57574	-972.52661	
5259	52.580	-771.20807	4.33805	-653.10553	796.19611	2.65678	-628.73175	-702.38702	16.57234	485.18304	704.20477	15.68405	586.97449	15.72960	729.16974	-971.75287	
5260	52.590	-770.17841	4.75203	-652.98657	797.24670	2.99968	-628.50391	-701.62030	16.46243	485.25366	705.20367	15.47893	587.57690	17.04197	729.82086	-970.83630	
5261	52.600	-769.00897	5.29185	-652.94305	798.32703	3.28601	-628.35089	-700.54822	16.26941	485.41061	706.16187	15.17604	587.81793	18.45549	730.51001	-969.93909	
5262	52.610	-768.32233	5.67867	-652.89825	799.22510	3.85247	-628.31433	-699.65155	16.04778	485.54254	707.04144	14.80142	587.93195	19.59417	731.13007	-969.26678	
5263	52.620	-767.31030	6.06220	-652.73615	800.15454	4.43516	-628.11401	-698.68109	15.62110	485.73141	708.01129	14.41901	587.99670	20.37063	731.63055	-968.79132	
5264	52.630	-766.30170	6.76981	-652.69580	801.02716	4.75302	-628.05908	-697.60858	15.26676	485.84985	709.16193	14.21214	588.20728	21.35673	732.20801	-967.98157	
5265	52.640	-765.57178	7.23956	-652.63031	801.86652	5.13698	-628.01611	-696.94501	14.94716	485.99405	710.06329	13.70630	588.26318	22.09975	733.00787	-967.42456	
5266	52.650	-764.55548	7.82472	-652.37964	802.90894	5.71594	-627.87042	-695.81952	14.71675	486.24850	710.98730	13.46890	588.35278	23.46528	733.66895	-966.86810	
5267	52.660	-763.46356	8.04527	-652.27893	803.89014	6.32338	-627.65344	-694.82239	14.34171	486.25272	711.89813	13.13817	588.34021	24.19967	734.38519	-966.42596	
5268	52.670	-762.48108	8.38908	-652.08179	804.86572	6.71820	-627.58411	-694.02142	14.05406	486.36188	712.72919	12.64688	588.46777	24.76674	735.12518	-966.08295	
5269	52.680	-761.63336	8.86808	-652.02875	805.74036	7.10670	-627.46912	-692.92017	13.73736	486.51880	713.64948	12.08278	588.58002	25.90712	735.79150	-965.67059	
5270	52.690	-760.97400	9.35691	-651.94446	806.40741	7.37622	-627.43823	-692.15979	13.35283	486.61945	714.61426	11.77798	588.94495	26.96681	736.50391	-965.00458	
5271	52.700	-759.71362	9.83690	-651.68439	807.45563	7.94503	-627.29993	-691.20697	12.92711	486.82336	715.50787	11.45394	589.11548	27.64100	737.35016	-964.56671	
5272	52.710	-758.73969	10.34671	-651.66949	808.55560	8.71796	-627.02875	-690.30273	12.64408	486.98956	716.49573	11.10935	589.20422	28.78102	737.93121	-964.00507	
5273	52.720	-758.07275	11.12442	-651.45074	809.43787	9.14459	-626.95752	-689.45203	12.32645	487.05060	717.38446	10.63244	589.27600	29.69103	738.92664	-963.29913	
5274	52.730	-757.32123	11.61323	-651.35095	810.29810	9.72132	-626.83588	-688.57471	11.95292	487.20340	718.23419	10.11691	589.32672	30.69242	739.56201	-962.45660	
5275	52.740	-756.30255	11.95749	-651.32220	811.22717	10.12690	-626.67151	-687.67200	11.57025	487.29471	719.14758	9.75745	589.45386	31.62722	740.10779	-961.61011	
5276	52.750	-754.19360	11.50330	-652.11224	811.96466	10.66344	-626.67297	-686.75513	11.06998	487.55783	720.01654	9.36494	589.58112	32.33828	740.96661	-960.78107	
5277	52.760	-754.03107	12.67021	-651.54846	812.76965	11.19119	-626.40546	-685.83624	10.84659	487.48270	720.78961	9.12528	589.62183	33.22187	741.65887	-959.71387	
5278	52.770	-753.23419	13.25331	-651.43097	813.72919	11.73641	-626.27832	-685.09985	10.61675	487.54660	721.75092	8.74833	589.73761	33.81542	742.32941	-958.95306	
5279	52.780	-752.46576	13.68565	-651.32983	814.62610	12.14323	-626.22510	-684.22620	10.41155	487.69467	722.57452	8.31507	589.90082	34.84588	743.07288	-958.15961	
5280	52.790	-751.64423	14.13466	-651.01105	815.22858	12.22578	-626.07971	-683.32800	9.89614	487.91241	723.32806	7.87735	590.14905	36.10840	743.13855	-957.77441	
5281	52.800	-750.77063	14.70829	-650.82861	816.26697	12.89913	-625.94342	-682.56128	9.50069	488.03271	724.14948	7.42303	590.35870	36.98413	743.66296	-957.25507	
